#!OML:ASF F:\VICON\USERDATA\INSTALL\Justin_Nancy\Justin_Nancy.ASF
:FULLY-SPECIFIED
:DEGREES
1
root 15.8436 16.8961 -25.8956 -0.703138 -4.1101 1.69446
lowerback 11.1499 1.76811 -2.71639
upperback 0.459733 2.04611 0.708618
thorax -5.89801 1.0882 1.94517
lowerneck -20.9172 -6.53965 -8.80744
upperneck 11.119 -8.40279 12.2374
head 7.77122 -3.27108 4.41359
rclavicle 2.93207e-014 6.75868e-015
rhumerus -43.7352 16.9399 -98.345
rradius 113.532
rwrist -16.0348
rhand -4.96508 17.8227
rfingers 7.12502
rthumb 20.827 -11.0795
lclavicle 2.93207e-014 6.75868e-015
lhumerus -49.8172 -10.8994 92.2118
lradius 103.86
lwrist 15.0709
lhand -12.5604 13.1744
lfingers 7.12502
lthumb 13.5169 42.7157
rfemur -12.6392 -1.40207 18.4023
rtibia 79.9143
rfoot 4.85699 -7.43239
rtoes 3.49584
lfemur -19.4161 1.18042 -23.606
ltibia 44.7922
lfoot -18.9341 4.92807
ltoes -5.881
2
root 15.853 16.8583 -25.5812 -0.605631 -4.71681 1.65641
lowerback 11.1113 1.66952 -2.57967
upperback 0.394843 1.93421 0.727969
thorax -5.93447 1.03091 1.90684
lowerneck -20.8473 -6.45216 -8.88481
upperneck 10.9702 -8.24012 12.1771
head 7.69188 -3.20883 4.42914
rclavicle 2.37051e-014 3.18055e-015
rhumerus -44.6702 16.6286 -98.81
rradius 112.994
rwrist -15.2343
rhand -6.31937 16.1521
rfingers 7.12502
rthumb 19.5253 -12.8874
lclavicle 2.37051e-014 3.18055e-015
lhumerus -49.2803 -10.3408 91.593
lradius 103.24
lwrist 13.8408
lhand -13.2803 12.5592
lfingers 7.12502
lthumb 12.823 42.1454
rfemur -14.9421 -1.57759 18.4999
rtibia 80.9106
rfoot 3.05286 -7.23275
rtoes 1.17299
lfemur -18.4691 1.46406 -23.5761
ltibia 45.1228
lfoot -19.7927 5.37535
ltoes -6.30795
3
root 15.8608 16.8611 -25.2662 -0.257723 -5.04442 1.48955
lowerback 10.7061 1.44601 -2.25067
upperback 0.451954 1.68913 0.742126
thorax -5.62371 0.898289 1.78508
lowerneck -21.1817 -6.25759 -8.92439
upperneck 10.9209 -7.94748 12.2632
head 7.705 -3.05329 4.50352
rclavicle -7.20594e-015 1.39149e-014
rhumerus -44.9657 16.2533 -99.0002
rradius 112.426
rwrist -15.2953
rhand -7.2272 14.6915
rfingers 7.12502
rthumb 18.6523 -14.4343
lclavicle -7.20594e-015 1.39149e-014
lhumerus -48.4412 -9.60321 90.7749
lradius 103.025
lwrist 14.0468
lhand -12.5249 13.0384
lfingers 7.12502
lthumb 13.5512 42.5774
rfemur -17.2821 -1.94933 18.815
rtibia 81.1982
rfoot 1.4635 -6.80613
rtoes -0.0757464
lfemur -17.5149 1.48978 -23.4328
ltibia 44.9606
lfoot -20.3512 5.63095
ltoes -7.91763
4
root 15.8729 16.8793 -24.9455 -0.0329729 -5.55998 1.25116
lowerback 10.373 1.21287 -1.86285
upperback 0.708206 1.43973 0.87243
thorax -5.14873 0.76078 1.74962
lowerneck -22.296 -6.04624 -9.03726
upperneck 11.1981 -7.55792 12.2187
head 7.93936 -2.83401 4.55697
rclavicle -1.64991e-014 -9.93923e-015
rhumerus -44.8716 16.3311 -98.9653
rradius 111.632
rwrist -15.8907
rhand -9.5257 13.303
rfingers 7.12502
rthumb 16.4403 -16.0204
lclavicle -1.64991e-014 -9.93923e-015
lhumerus -47.4894 -8.63751 90.0766
lradius 102.892
lwrist 14.2817
lhand -12.855 13.3434
lfingers 7.12502
lthumb 13.233 42.9034
rfemur -19.3883 -1.98953 19.3431
rtibia 81.1819
rfoot -0.124236 -6.50916
rtoes -2.47243
lfemur -16.2833 1.5599 -23.2586
ltibia 44.7561
lfoot -20.7933 5.90251
ltoes -9.02554
5
root 15.8866 16.8964 -24.6101 -0.0909781 -6.55359 1.32509
lowerback 10.3134 1.16512 -1.79928
upperback 1.15946 1.38993 0.991548
thorax -4.64198 0.727058 1.85042
lowerneck -24.3056 -6.05788 -9.08884
upperneck 11.8365 -7.39253 11.8682
head 8.44877 -2.71314 4.46275
rclavicle 1.68967e-015 7.95139e-016
rhumerus -44.7128 17.021 -99.0703
rradius 111.143
rwrist -15.8825
rhand -10.9094 13.2763
rfingers 7.12502
rthumb 15.1077 -16.1523
lclavicle 1.68967e-015 7.95139e-016
lhumerus -46.4655 -7.61319 89.5484
lradius 102.88
lwrist 14.5771
lhand -13.4567 13.8939
lfingers 7.12502
lthumb 12.6529 43.4907
rfemur -21.1567 -1.57732 19.5802
rtibia 80.8259
rfoot -2.00813 -6.1205
rtoes -7.71213
lfemur -14.5807 1.86337 -23.5216
ltibia 44.3644
lfoot -21.1027 6.42306
ltoes -10.7334
6
root 15.8991 16.9098 -24.2733 -0.353002 -7.49192 1.58771
lowerback 10.6115 1.23495 -1.97419
upperback 0.57544 1.45265 0.901927
thorax -5.42604 0.77359 1.83628
lowerneck -22.0904 -5.68401 -8.5767
upperneck 11.2713 -7.0697 11.3671
head 7.81561 -2.66931 4.26281
rclavicle -1.09829e-014 -1.86858e-014
rhumerus -46.8951 16.5786 -99.8871
rradius 111.258
rwrist -16.2328
rhand -11.0497 12.8184
rfingers 7.12502
rthumb 14.9726 -16.6204
lclavicle -1.09829e-014 -1.86858e-014
lhumerus -47.9262 -7.13921 89.2008
lradius 103.193
lwrist 15.0362
lhand -13.9192 14.2631
lfingers 7.12502
lthumb 12.207 43.8869
rfemur -22.5818 -1.27207 19.6328
rtibia 80.1803
rfoot -3.69715 -5.63747
rtoes -9.8618
lfemur -12.6674 2.0179 -24.0666
ltibia 43.9347
lfoot -21.1411 6.98698
ltoes -12.0949
7
root 15.9067 16.9222 -23.9476 -0.540644 -7.94216 2.1815
lowerback 10.7613 1.15161 -2.46855
upperback 0.358891 1.27126 0.785967
thorax -5.73783 0.70117 2.01789
lowerneck -21.3794 -5.46905 -8.27325
upperneck 11.0025 -6.82225 10.9636
head 7.55395 -2.6034 4.11402
rclavicle -3.05134e-014 -2.78299e-015
rhumerus -48.0293 16.2378 -100.052
rradius 111.586
rwrist -16.6012
rhand -9.8625 12.9212
rfingers 7.12502
rthumb 16.1161 -16.4288
lclavicle -3.05134e-014 -2.78299e-015
lhumerus -48.4314 -6.56498 88.8739
lradius 103.398
lwrist 15.5058
lhand -14.2494 14.4876
lfingers 7.12502
lthumb 11.8886 44.1301
rfemur -23.9441 -1.38846 19.3216
rtibia 79.3251
rfoot -5.27802 -5.02321
rtoes -7.23021
lfemur -11.0766 1.86906 -24.9797
ltibia 43.5734
lfoot -20.752 7.36615
ltoes -13.1983
8
root 15.9093 16.9498 -23.6236 -0.522316 -8.15964 2.59268
lowerback 10.6984 0.971278 -2.8679
upperback 0.478544 0.989409 0.863438
thorax -5.56952 0.570437 2.37039
lowerneck -22.3433 -5.34956 -8.49575
upperneck 11.3573 -6.5395 10.8896
head 7.80463 -2.45116 4.16173
rclavicle -1.67476e-014 5.96354e-015
rhumerus -48.3744 16.4539 -99.8642
rradius 111.781
rwrist -17.1701
rhand -9.02189 13.5037
rfingers 7.12502
rthumb 16.9254 -15.7788
lclavicle -1.67476e-014 5.96354e-015
lhumerus -48.0947 -5.84597 88.6067
lradius 103.57
lwrist 16.1615
lhand -14.589 14.12
lfingers 7.12502
lthumb 11.5611 43.7812
rfemur -25.3779 -1.61995 19.3136
rtibia 78.1259
rfoot -6.61306 -4.46773
rtoes -5.15052
lfemur -9.7847 1.61164 -25.6736
ltibia 43.2495
lfoot -20.0235 7.62138
ltoes -15.2499
9
root 15.9084 16.9885 -23.2977 -0.416138 -8.42964 2.70234
lowerback 10.5123 0.712143 -2.98337
upperback 0.933192 0.653544 1.12854
thorax -4.97041 0.395035 2.76725
lowerneck -24.9038 -5.34294 -9.08558
upperneck 12.3896 -6.25543 11.0456
head 8.56724 -2.23821 4.35641
rclavicle 1.73937e-014 3.97569e-015
rhumerus -48.1793 17.2468 -99.6363
rradius 111.624
rwrist -18.209
rhand -8.99993 14.6565
rfingers 7.12502
rthumb 16.9465 -14.6242
lclavicle 1.73937e-014 3.97569e-015
lhumerus -47.0709 -4.7599 88.3898
lradius 103.77
lwrist 17.0828
lhand -14.0585 13.8524
lfingers 7.12502
lthumb 12.0727 43.4842
rfemur -26.7855 -1.75216 19.7853
rtibia 76.5142
rfoot -7.30666 -4.16253
rtoes -5.66576
lfemur -8.59352 1.62197 -25.9871
ltibia 42.9531
lfoot -19.0745 7.71534
ltoes -18.1616
10
root 15.9058 17.0373 -22.9634 -0.522389 -8.74524 3.09869
lowerback 10.399 0.615048 -3.32816
upperback 0.490796 0.479701 1.03534
thorax -5.36189 0.329787 2.8906
lowerneck -23.3365 -5.03341 -8.98865
upperneck 12.3557 -5.99363 11.0584
head 8.26699 -2.15743 4.38875
rclavicle -3.40419e-014 7.95139e-016
rhumerus -50.2022 16.6625 -100.11
rradius 112.294
rwrist -18.2267
rhand -8.50135 14.5634
rfingers 7.12502
rthumb 17.4264 -14.6755
lclavicle -3.40419e-014 7.95139e-016
lhumerus -48.1306 -4.49396 88.0806
lradius 104.124
lwrist 18.0242
lhand -14.1429 14.0887
lfingers 7.12502
lthumb 11.9914 43.7252
rfemur -27.8116 -1.8606 19.9358
rtibia 74.5004
rfoot -7.73524 -3.72151
rtoes -5.84203
lfemur -7.12521 1.63616 -26.6051
ltibia 42.5362
lfoot -17.8954 7.66376
ltoes -20.5093
11
root 15.9006 17.111 -22.6194 -0.639905 -9.05149 3.26185
lowerback 10.3966 0.465653 -3.40616
upperback 0.400383 0.273898 1.08552
thorax -5.44091 0.233912 3.01852
lowerneck -23.4182 -4.89906 -9.14871
upperneck 12.6429 -5.79394 11.1494
head 8.3639 -2.05677 4.48094
rclavicle -1.635e-014 5.56597e-015
rhumerus -51.2376 16.7237 -100.302
rradius 112.763
rwrist -18.9654
rhand -8.37117 14.2478
rfingers 7.12502
rthumb 17.5517 -14.98
lclavicle -1.635e-014 5.56597e-015
lhumerus -48.4209 -3.98175 87.8994
lradius 104.318
lwrist 18.2559
lhand -14.3047 14.4947
lfingers 7.12502
lthumb 11.8353 44.1402
rfemur -28.4646 -1.94496 20.361
rtibia 71.9769
rfoot -8.56793 -3.46335
rtoes -7.43314
lfemur -5.63681 1.63388 -26.9037
ltibia 42.0008
lfoot -16.4715 7.12637
ltoes -22.1663
12
root 15.8942 17.2015 -22.27 -0.59888 -9.34284 3.28255
lowerback 10.1797 0.32446 -3.30122
upperback 0.68557 0.114604 1.21603
thorax -5.00692 0.14137 3.11772
lowerneck -24.9194 -4.94224 -9.40516
upperneck 13.2338 -5.70959 11.2428
head 8.8158 -1.96943 4.57804
rclavicle -5.66536e-015 7.95139e-015
rhumerus -51.036 17.0887 -100.179
rradius 112.668
rwrist -19.0978
rhand -8.73174 14.0371
rfingers 7.12502
rthumb 17.2046 -15.2213
lclavicle -5.66536e-015 7.95139e-015
lhumerus -47.8255 -3.47743 87.795
lradius 104.341
lwrist 18.2187
lhand -14.2972 14.3582
lfingers 7.12502
lthumb 11.8425 44.0034
rfemur -28.9821 -1.95525 20.968
rtibia 69.0336
rfoot -9.64184 -3.49799
rtoes -11.4225
lfemur -4.37381 1.48348 -27.0078
ltibia 41.3029
lfoot -14.5798 6.25078
ltoes -22.937
13
root 15.8847 17.2924 -21.9162 -0.565634 -9.61031 3.44381
lowerback 9.66174 0.183449 -3.45259
upperback 0.353583 -0.0726678 1.2681
thorax -5.05019 0.0593481 3.28301
lowerneck -23.0743 -4.62386 -9.42053
upperneck 12.9071 -5.3996 11.2455
head 8.36272 -1.88352 4.62308
rclavicle -6.70898e-015 -3.97569e-015
rhumerus -52.4036 16.8575 -100.352
rradius 112.662
rwrist -18.3906
rhand -8.35475 14.2684
rfingers 7.12502
rthumb 17.5675 -14.9579
lclavicle -6.70898e-015 -3.97569e-015
lhumerus -48.7865 -3.18098 87.6846
lradius 104.527
lwrist 18.2469
lhand -14.4661 14.162
lfingers 7.12502
lthumb 11.6796 43.8164
rfemur -29.3182 -1.96938 21.4218
rtibia 65.7785
rfoot -10.3833 -3.5513
rtoes -14.3088
lfemur -3.0947 1.47915 -27.1909
ltibia 40.4871
lfoot -12.6311 5.31453
ltoes -24.9782
14
root 15.8712 17.3823 -21.56 -0.494074 -9.76723 3.65254
lowerback 9.30047 0.0573597 -3.63502
upperback 0.0701267 -0.248629 1.30033
thorax -5.12958 -0.0161629 3.44298
lowerneck -22.2928 -4.47143 -9.32598
upperneck 13.0074 -5.26959 11.113
head 8.24318 -1.85326 4.58199
rclavicle 2.19657e-014 -1.19271e-014
rhumerus -53.5081 16.3056 -100.168
rradius 112.72
rwrist -17.5605
rhand -7.07175 15.3306
rfingers 7.12502
rthumb 18.8018 -13.7808
lclavicle 2.19657e-014 -1.19271e-014
lhumerus -49.4552 -3.08876 87.6349
lradius 104.643
lwrist 18.3305
lhand -14.4834 13.5931
lfingers 7.12502
lthumb 11.6629 43.2485
rfemur -29.5608 -1.9999 21.8418
rtibia 62.2625
rfoot -11.0542 -3.69595
rtoes -15.7211
lfemur -1.87571 1.49569 -27.3181
ltibia 39.6331
lfoot -10.4931 3.93756
ltoes -27.1573
15
root 15.8561 17.4805 -21.1956 -0.391587 -10.1408 3.80611
lowerback 9.02573 0.0138709 -3.74084
upperback -0.153586 -0.306665 1.36544
thorax -5.2042 -0.035669 3.57803
lowerneck -22.1537 -4.47247 -9.38989
upperneck 13.1981 -5.27446 11.0909
head 8.28503 -1.86369 4.58761
rclavicle -3.926e-015 -1.35174e-014
rhumerus -54.4013 15.9592 -100.017
rradius 112.894
rwrist -16.9154
rhand -6.45421 15.7538
rfingers 7.12502
rthumb 19.3957 -13.2989
lclavicle -3.926e-015 -1.35174e-014
lhumerus -49.9726 -2.92906 87.6856
lradius 104.814
lwrist 18.4757
lhand -14.2427 13.5997
lfingers 7.12502
lthumb 11.895 43.2418
rfemur -29.6722 -1.92095 22.3322
rtibia 58.5361
rfoot -11.463 -3.5393
rtoes -15.9291
lfemur -0.718323 1.60102 -27.3667
ltibia 38.7579
lfoot -7.68744 1.81349
ltoes -26.105
